<?xml version="1.0" encoding="utf-8"?>
<!-- Generator: Adobe Illustrator 15.0.0, SVG Export Plug-In . SVG Version: 6.00 Build 0)  -->
<!DOCTYPE svg PUBLIC "-//W3C//DTD SVG 1.1//EN" "http://www.w3.org/Graphics/SVG/1.1/DTD/svg11.dtd">
<svg version="1.1" xmlns="http://www.w3.org/2000/svg" xmlns:xlink="http://www.w3.org/1999/xlink" x="0px" y="0px"
	 width="141.304px" height="155.001px" viewBox="0 0 141.304 155.001" enable-background="new 0 0 141.304 155.001"
	 xml:space="preserve">
<g id="Guides_For_Artboard" display="none">
</g>
<g id="Layer_1">
	<g display="none">
		<path display="inline" fill-rule="evenodd" clip-rule="evenodd" fill="#E3000F" d="M-145.85,195.994
			c1.721-0.437,3.543-0.105,5.304-0.207c0.948-0.088,2.476,0.2,2.38,1.447c-0.623,3.907-1.348,7.803-2.022,11.703
			c-0.171,2.201-4.145,2.314-4.446,0.146c-0.675-3.809-1.324-7.625-1.979-11.438C-146.833,196.982-146.505,196.246-145.85,195.994z"
			/>
		<path display="inline" fill-rule="evenodd" clip-rule="evenodd" fill="#E3000F" d="M-180.096,211.627
			c0.58-0.507,1.607-0.572,2.052,0.149c2.308,3.168,4.542,6.39,6.823,9.579c1.4,1.73-1.469,4.614-3.196,3.192
			c-3.062-2.146-6.112-4.312-9.178-6.447c-0.401-0.321-0.955-0.62-0.988-1.199c-0.062-0.955,0.75-1.597,1.341-2.22
			C-182.174,213.683-181.222,212.563-180.096,211.627z"/>
		<path display="inline" fill-rule="evenodd" clip-rule="evenodd" fill="#E3000F" d="M-106.551,211.485
			c0.747-0.583,1.702-0.033,2.264,0.543c1.159,1.155,2.34,2.289,3.455,3.488c0.564,0.568,0.864,1.698,0.062,2.205
			c-3.247,2.34-6.542,4.617-9.818,6.918c-1.254,0.882-2.803-0.354-3.295-1.535c-0.507-0.929,0.255-1.778,0.762-2.492
			C-110.898,217.594-108.843,214.448-106.551,211.485z"/>
		<path display="inline" fill-rule="evenodd" clip-rule="evenodd" fill="#E3000F" d="M-159.703,226.939
			c4.221-5.11,10.705-8.281,17.339-8.431c4.505-0.146,9.05,1.042,12.896,3.396c5.313,3.211,9.279,8.599,10.649,14.663
			c1.126,4.994,0.7,10.421-1.673,15.002c-1.753,3.562-4.606,6.415-6.561,9.853c-0.966,1.669-1.477,3.564-1.523,5.492
			c0.015,1.09-1.018,2.001-2.085,1.943c-3.219-0.008-6.437,0.047-9.651-0.029c0.189-4.01,1.371-7.869,2.752-11.609
			c0.109-0.218,0.131-0.455,0.091-0.692c-0.608,0.646-1.418,1.178-2.314,1.265c-0.682-0.488-1.269-1.09-1.881-1.654
			c-0.699,0.554-1.246,1.406-2.125,1.673c-0.751-0.263-1.421-0.696-2.106-1.083c1.359,3.923,2.676,7.921,2.883,12.102
			c-3.186,0.091-6.371,0.021-9.553,0.036c-0.977,0.059-1.997-0.616-2.14-1.614c-0.157-1.346-0.196-2.73-0.726-3.999
			c-1.447-3.765-4.469-6.593-6.473-10.037C-167.04,245.211-165.754,234.098-159.703,226.939z"/>
		<path display="inline" fill-rule="evenodd" clip-rule="evenodd" fill="#0068B4" d="M-202.959,252.5
			c8.281-8.583,19.339-14.43,31.116-16.361c-1.52,6.742-0.85,14.068,2.424,20.21c2.096,4.046,5.26,7.56,6.553,11.999
			c1.75,5.967-0.335,12.327,1.469,18.282c1.167,3.937,4.178,7.074,7.654,9.123c5.785,3.371,12.957,4.494,19.427,2.617
			c3.962-1.138,7.625-3.809,9.272-7.669c2.916-6.765,0.445-14.47,3.076-21.304c1.491-3.951,4.874-6.695,7.075-10.209
			c5.843,8.124,9.706,17.725,10.76,27.696c1.684,16.19-3.776,32.975-14.612,45.112c-1.466,1.702-3.149,3.196-4.706,4.812
			c-1.053,1.063-1.694,2.515-1.654,4.023c-0.018,7.046,0,14.091-0.011,21.136c0.051,3.536,0.682,7.133-0.139,10.629
			c-0.383,1.728-1.374,3.383-2.938,4.271c-1.972,1.141-4.327,1.151-6.539,1.163c-14.44-0.012-28.881,0.025-43.326-0.015
			c-2.788,0.087-5.977-0.926-7.184-3.671c-2.132-4.398-0.167-9.309-0.889-13.919c-6.674-0.015-13.347,0.04-20.021,0.032
			c-1.647-0.043-3.487-0.186-4.767-1.348c-0.944-0.813-1.101-2.118-1.309-3.27c-1.417-8.963-2.872-17.918-4.25-26.889
			c-3.31-1.188-6.969-0.192-10.25-1.465c-1.542-0.572-2.974-1.768-3.364-3.426c-0.554-2.282,0.332-4.571,1.203-6.652
			c2.61-6.021,6.025-11.729,7.814-18.085c1.119-3.94,1.261-8.056,1.669-12.104C-218.075,274.22-212.072,261.831-202.959,252.5
			L-202.959,252.5z M-224.509,322.203c0.207,0.064,0.422,0.109,0.633,0.145c0.859,0.143,1.79,0.155,2.659,0.186
			c2.33,0.082,4.453,0.236,6.672,1.033l3.206,1.151l0.517,3.367c1.364,8.884,2.805,17.755,4.209,26.633
			c0.198,0.01,0.389,0.015,0.534,0.018c6.653,0.007,13.306-0.047,19.958-0.032l4.887,0.011l0.756,4.828
			c0.348,2.225,0.247,4.395,0.086,6.628c-0.113,1.573-0.422,4.193,0.299,5.68l0.049,0.1c0.39,0.278,1.391,0.359,1.806,0.346
			l0.097-0.002h0.099c14.437,0.04,28.873,0.015,43.31,0.015c0.842,0,2.834,0.036,3.638-0.376c0.119-0.142,0.225-0.46,0.261-0.62
			c0.62-2.692,0.004-6.509-0.007-9.321c-0.027-7.035-0.008-14.07,0.011-21.105c-0.052-3.012,1.184-5.921,3.278-8.07
			c1.476-1.515,3.09-2.951,4.468-4.552l0.033-0.039l0.035-0.039c9.761-10.933,14.715-26.117,13.188-40.704
			c-0.665-6.361-2.623-12.56-5.577-18.232c-0.498,0.715-0.936,1.454-1.218,2.193c-0.306,0.801-0.51,1.637-0.651,2.482
			c-0.318,1.9-0.35,3.893-0.391,5.816c-0.1,4.628-0.262,8.891-2.121,13.22c-2.34,5.447-7.325,9.285-12.942,10.909
			c-7.968,2.302-16.78,0.995-23.907-3.176c-4.749-2.779-8.644-7.084-10.245-12.417c-0.433-1.44-0.705-2.917-0.858-4.412
			c-0.227-2.201-0.185-4.389-0.131-6.596c0.057-2.332,0.172-5.049-0.491-7.314c-1.054-3.603-4.321-7.518-6.123-10.937
			c-2.501-4.745-3.757-10.062-3.845-15.403c-7.738,2.561-14.847,7.025-20.525,12.873c-8.184,8.43-13.662,19.592-14.857,31.313
			c-0.454,4.446-0.63,8.743-1.855,13.08c-1.896,6.709-5.342,12.454-8.063,18.789C-223.82,320.112-224.365,321.385-224.509,322.203z"
			/>
		<path display="inline" fill-rule="evenodd" clip-rule="evenodd" fill="#0068B4" d="M-155.803,281.786
			c0.092-2.164,1.935-2.651,3.701-2.663c6.847-0.045,13.698,0.006,20.548-0.018c1.917-0.006,3.552,0.17,4.04,2.4
			c0.086,0.391,0.069,0.807-0.093,1.246c-0.303,1.323-1.819,1.521-2.566,2.475c-1.567,1.899-3.802,3.179-6.2,3.682
			c-1.229,4.764-9.338,4.778-10.562,0.011c-1.691-0.401-3.342-1.068-4.69-2.187c-1.071-0.78-1.728-2.034-2.956-2.606
			C-155.413,283.686-155.865,282.705-155.803,281.786z"/>
		<path display="inline" fill-rule="evenodd" clip-rule="evenodd" fill="#0068B4" d="M-152.809,271.523h22.346
			c1.684,0,3.061,1.377,3.061,3.062l0,0c0,1.684-1.377,3.062-3.061,3.062h-22.346c-1.684,0-3.061-1.378-3.061-3.062l0,0
			C-155.869,272.9-154.492,271.523-152.809,271.523z"/>
	</g>
	<g display="none">
		<path display="inline" fill-rule="evenodd" clip-rule="evenodd" fill="#0068B4" d="M157.219,278.114
			c-0.001,8.139-0.015,16.276,0.013,24.415c3.015,0.039,6.035-0.014,9.051,0.013c2.848-0.034,5.443,2.437,5.345,5.206
			c0.022,16.285,0.022,32.574-0.005,48.859c0.095,2.771-2.505,5.271-5.372,5.175c-8.423,0.031-16.848,0.005-25.271,0.014
			c-2.875,0.052-5.508-2.44-5.391-5.241c-0.045-5.219,0.019-10.438-0.022-15.657c-9.608-0.03-19.218-0.009-28.827-0.014
			c-0.004,5.808,0.005,11.615-0.004,17.422c6.62,0,13.246-0.021,19.866,0.01c1.394-0.065,2.312,1.689,1.438,2.74
			c-0.501,0.775-1.533,0.74-2.357,0.744c-24.964-0.021-49.929,0.018-74.889-0.018c-1.37,0.049-2.28-1.669-1.438-2.714
			c0.496-0.802,1.537-0.771,2.38-0.771c6.313,0.008,12.628,0,18.942,0.008c-0.004-5.807-0.008-11.618,0-17.426
			c-9.617,0.004-19.23,0.014-28.849-0.004c0.004,5.24,0.031,10.481-0.01,15.722c0.077,2.771-2.51,5.263-5.376,5.181
			c-15.64,0.03-31.279,0.026-46.914,0.004c-2.889,0.097-5.453-2.448-5.386-5.219c-0.014-19.896,0.005-39.792-0.009-59.693
			c0.055-1.913-0.324-4.025,0.784-5.732c1.019-1.704,3.069-2.653,5.075-2.549c10.068,0.017,20.132,0.008,30.201,0.004
			c0.014-13.357-0.018-26.719,0.009-40.08c-0.126-4.645,4.188-8.813,8.987-8.7c25.988-0.021,51.974-0.006,77.958-0.005v-0.005
			c13.688-0.002,27.379-0.002,41.069,0.01c4.8-0.113,9.113,4.056,8.987,8.7c0.021,9.868,0.008,19.735,0.006,29.602H157.219
			L157.219,278.114z M109.347,243.294v0.02c-26.561-0.037-53.121-0.012-79.682-0.012c-3.028-0.287-5.953,2.227-5.831,5.202l0,0
			c-0.06,13.365,0,26.735-0.027,40.102c2.406-0.017,4.81-0.026,7.216,0c0-12.22-0.045-24.44,0.022-36.66
			c-0.067-1.142,1.141-1.829,2.208-1.682c24.633-0.009,49.265-0.005,73.897-0.001v-0.004c12.336-0.001,24.673,0.001,37.009,0.005
			c1.068-0.147,2.275,0.54,2.208,1.682c0.049,8.723,0.039,17.445,0.03,26.169c0.011,8.143,0.004,16.284-0.001,24.428
			c2.402-0.034,4.81,0.014,7.212,0c-0.007-7.356-0.007-14.711-0.003-22.066h-0.008c0-10.657,0.028-21.315-0.019-31.972l0,0
			c0.121-2.976-2.803-5.489-5.832-5.202C134.947,243.302,122.147,243.296,109.347,243.294L109.347,243.294z M108.82,253.754h-0.557
			h-0.084h-0.473h-0.557c-24.172,0.003-48.346-0.005-72.523,0.004l0,0c0.015,3.477-0.03,6.953,0.01,10.43
			c24.171,0.033,48.343,0.003,72.514,0.016c11.875,0.001,23.75,0,35.625-0.016c0.041-3.477-0.005-6.953,0.009-10.43l0,0
			C131.463,253.753,120.141,253.753,108.82,253.754L108.82,253.754z M107.15,267.694c-24.178,0-48.354,0.004-72.527-0.004l0,0
			c0.009,6.97,0.004,13.94,0,20.906c1.456,0.014,3.052-0.23,4.362,0.549c1.573,0.811,2.845,2.423,2.84,4.191
			c0.036,5.385,0,10.77,0.009,16.154c31.247,0.048,62.495-0.009,93.746,0.026c-0.076-1.83-0.158-3.883,1.298-5.276
			c1.429-1.733,3.812-1.855,5.918-1.699c-0.015-7.357-0.012-14.712-0.008-22.066h-0.004c-0.001-4.262-0.001-8.523,0.005-12.785l0,0
			C130.911,267.694,119.03,267.695,107.15,267.694L107.15,267.694L107.15,267.694z M-12.254,294.247L-12.254,294.247
			c0.027,16.698-0.014,33.401,0.022,50.105c16.82,0.025,33.64-0.005,50.46,0.013c-0.018-16.707,0.009-33.415-0.009-50.122
			c0.068-0.901-0.478-1.869-1.438-2.069c-1.005-0.166-2.037-0.083-3.052-0.083c-14.747,0.013-29.493-0.025-44.235,0.018
			C-11.659,292.065-12.407,293.22-12.254,294.247L-12.254,294.247z M139.222,307.735L139.222,307.735
			c-0.112,1.752,0.027,3.507-0.036,5.263c9.617-0.005,19.231-0.013,28.85,0.005c-0.063-1.883,0.071-3.769-0.068-5.646
			c-0.176-0.963-1.248-1.438-2.177-1.333c-8.125,0.021-16.252,0-24.378,0.009C140.361,305.936,139.271,306.672,139.222,307.735
			L139.222,307.735z M41.834,312.998L41.834,312.998c-0.014,2.322,0.037,4.648,0,6.971c31.252-0.009,62.499-0.009,93.746,0
			c0.014-2.322-0.036-4.648,0-6.971C104.329,313.007,73.081,313.007,41.834,312.998L41.834,312.998z M139.181,316.479
			L139.181,316.479c0.019,10.455,0.005,20.915,0.005,31.371c9.617-0.004,19.231-0.014,28.85,0.004
			c-0.019-10.455-0.005-20.915-0.005-31.371C158.413,316.487,148.799,316.496,139.181,316.479L139.181,316.479z M41.83,323.449
			L41.83,323.449c0.022,4.648,0.004,9.297,0.004,13.945c31.252-0.009,62.499-0.009,93.746,0c-0.027-4.64,0.022-9.283-0.019-13.928
			C104.319,323.436,73.072,323.476,41.83,323.449L41.83,323.449z M74.284,340.88L74.284,340.88c0.005,5.808,0.01,11.619,0,17.426
			c9.619-0.004,19.231-0.013,28.851,0.005c-0.023-5.812-0.005-11.623-0.005-17.435C93.516,340.894,83.898,340.884,74.284,340.88
			L74.284,340.88z M-12.25,347.851L-12.25,347.851c0.027,2.919-0.022,5.842,0.019,8.765c-0.027,0.906,0.824,1.717,1.767,1.669
			c15.18,0.048,30.359-0.008,45.539,0.031c1.136,0.039,2.862,0.047,3.073-1.377c0.186-3.02,0.041-6.052,0.063-9.074
			C21.391,347.837,4.57,347.868-12.25,347.851L-12.25,347.851z M139.181,351.331L139.181,351.331
			c0.063,1.891-0.081,3.79,0.072,5.682c0.199,0.937,1.244,1.394,2.164,1.298c8.283-0.031,16.567,0.018,24.852-0.021
			c0.938,0.034,1.784-0.789,1.744-1.695c0.072-1.751-0.041-3.507,0.018-5.258C158.413,351.34,148.794,351.349,139.181,351.331z"/>
		<path display="inline" fill-rule="evenodd" clip-rule="evenodd" fill="#E3000F" d="M39.238,257.373
			c1.294-0.635,2.916,0.702,2.466,2.035c-0.253,1.146-1.808,1.716-2.786,1.011C37.773,259.713,37.958,257.84,39.238,257.373z"/>
		<path display="inline" fill-rule="evenodd" clip-rule="evenodd" fill="#E3000F" d="M46.436,257.378
			c1.28-0.645,2.907,0.68,2.488,2.013c-0.238,1.26-2.041,1.786-2.975,0.88C44.98,259.491,45.269,257.822,46.436,257.378z"/>
		<path display="inline" fill-rule="evenodd" clip-rule="evenodd" fill="#E3000F" d="M53.688,257.36
			c1.275-0.601,2.854,0.715,2.448,2.021c-0.227,1.269-2.047,1.795-2.971,0.889C52.174,259.481,52.493,257.783,53.688,257.36z"/>
		<g display="inline">
			<path fill-rule="evenodd" clip-rule="evenodd" fill="#E3000F" d="M78.909,274.826c0.698-0.362,1.501-0.109,2.087,0.335
				c5.579,3.756,11.132,7.551,16.716,11.297c0.771,0.553,1.826,1.071,1.844,2.139c0.004,0.963-0.879,1.504-1.596,1.995
				c-5.764,3.848-11.475,7.776-17.239,11.619c-1.072,0.863-2.884-0.03-2.812-1.367c-0.05-8.017-0.014-16.032-0.018-24.049
				C77.827,276.024,78.106,275.145,78.909,274.826L78.909,274.826z M81.491,279.758L81.491,279.758
				c0.027,5.898-0.018,11.793,0.023,17.688c4.335-2.972,8.716-5.882,13.061-8.844C90.213,285.656,85.859,282.693,81.491,279.758z"/>
		</g>
		<g display="inline">
			<path fill-rule="evenodd" clip-rule="evenodd" fill="#E3000F" d="M5.851,309.644c0.847-0.439,1.681,0.144,2.357,0.597
				c3.866,2.632,7.743,5.254,11.623,7.867c0.658,0.449,1.474,0.977,1.415,1.87c0.054,0.871-0.752,1.398-1.397,1.843
				c-4.083,2.728-8.126,5.507-12.209,8.237c-1.122,0.941-3.02-0.03-2.889-1.445c-0.005-5.772-0.005-11.541,0.004-17.313
				C4.724,310.598,5.161,309.892,5.851,309.644L5.851,309.644z M8.356,314.619L8.356,314.619c-0.004,3.568,0,7.136,0,10.699
				c2.637-1.769,5.269-3.55,7.896-5.337C13.644,318.161,10.998,316.396,8.356,314.619z"/>
		</g>
		<path display="inline" fill-rule="evenodd" clip-rule="evenodd" fill="#E3000F" d="M87.481,327.135
			c2.064-0.793,4.578,0.693,4.8,2.819c0.315,1.847-1.181,3.733-3.105,3.925c-1.889,0.297-3.804-1.119-4.043-2.945
			C84.854,329.331,85.903,327.657,87.481,327.135z"/>
		<path display="inline" fill-rule="evenodd" clip-rule="evenodd" fill="#E3000F" d="M12.146,351.413
			c1.353-0.774,3.173,0.725,2.552,2.127c-0.365,1.294-2.371,1.599-3.143,0.488C10.845,353.222,11.191,351.885,12.146,351.413z"/>
		<path display="inline" fill-rule="evenodd" clip-rule="evenodd" fill="#E3000F" d="M152.833,353.244
			c1.117-0.597,2.636,0.349,2.582,1.572c0.091,1.368-1.739,2.283-2.844,1.434C151.44,355.558,151.603,353.745,152.833,353.244z"/>
		<path display="inline" fill-rule="evenodd" clip-rule="evenodd" fill="#E3000F" d="M150.609,325.631
			c0.244-0.126,0.522-0.038,0.727,0.116c1.941,1.307,3.873,2.627,5.815,3.931c0.27,0.192,0.636,0.373,0.642,0.744
			c0.002,0.335-0.306,0.522-0.555,0.694c-2.005,1.338-3.992,2.706-5.998,4.043c-0.373,0.3-1.003-0.011-0.979-0.477
			c-0.017-2.788-0.004-5.578-0.006-8.366C150.233,326.048,150.331,325.742,150.609,325.631L150.609,325.631z M152.016,328.032
			L152.016,328.032c0.007,1.595-0.005,3.189,0.007,4.782c1.172-0.803,2.355-1.59,3.531-2.391
			C154.373,329.627,153.196,328.826,152.016,328.032z"/>
	</g>
	<g display="none">
		<path display="inline" fill-rule="evenodd" clip-rule="evenodd" fill="#FFFFFF" d="M-216.205,54.546
			c-5.258,0.013-10.517-0.004-15.775,0.008c-0.962,0.016-1.808,0.911-1.773,1.87c-0.003,5.505,0.003,11.01-0.003,16.511
			c-0.006,0.531,0,1.062,0.006,1.596c-0.013,1.603-0.003,3.205-0.006,4.81c-0.006,0.534,0,1.065,0.006,1.602
			c-0.013,1.615,0,3.23-0.006,4.849c-0.006,0.524,0,1.049,0.006,1.573c-0.013,1.619-0.003,3.237-0.006,4.855
			c-0.006,0.534,0,1.072,0.006,1.609c-0.013,1.608-0.003,3.214-0.006,4.823c-0.006,0.538,0,1.075,0.006,1.612
			c-0.013,1.612-0.003,3.227-0.006,4.838c-0.006,0.525,0,1.049,0.006,1.574c-0.013,1.615-0.003,3.233-0.006,4.852
			c-0.006,0.531,0,1.062,0.006,1.596c-0.013,1.605-0.003,3.211-0.006,4.819c-0.006,0.541,0,1.078,0.006,1.622
			c-0.013,1.612-0.003,3.224-0.006,4.836c-0.006,0.531,0,1.059,0.006,1.589c-0.013,1.615-0.003,3.234-0.006,4.849
			c-0.006,0.524,0,1.052,0.006,1.58c-0.006,1.184-0.013,2.372,0.003,3.555c0.554,0.01,1.11,0.007,1.667,0
			c0.524,0.003,1.048,0.01,1.573,0.003c1.618,0,3.233,0.006,4.852-0.003c0.531,0.003,1.059,0.01,1.59,0.003
			c1.615,0,3.227,0.006,4.842,0c0.534,0,1.068,0.006,1.603,0c1.608,0,3.217,0.006,4.826-0.003c0.531,0.003,1.058,0.01,1.589,0.003
			c1.618,0,3.24,0.006,4.858-0.003c0.534,0.003,1.071,0.01,1.605,0.003c1.605,0,3.211,0.006,4.813,0c0.537,0,1.071,0.006,1.609,0
			c1.608,0,3.22,0.006,4.829-0.003c0.534,0.003,1.065,0.01,1.599,0.003c1.615,0,3.23,0.006,4.845,0c0.534,0,1.068,0.006,1.602,0
			c1.615,0,3.23,0.006,4.846-0.003c0.524,0.007,1.052,0.01,1.576,0.003c1.615,0,3.228,0.006,4.843-0.003
			c0.534,0.003,1.067,0.01,1.603,0.003c1.611,0,3.223,0.006,4.838-0.003c0.531,0.003,1.062,0.01,1.597,0.003
			c1.604,0,3.214,0.006,4.819,0c0.537,0.003,1.074,0.01,1.615,0.003c1.611-0.003,3.224,0.003,4.836-0.003
			c0.531,0.003,1.062,0.006,1.592,0.003c1.615-0.003,3.23,0.003,4.846-0.003c0.527,0.003,1.059,0.006,1.59,0.003
			c1.615-0.003,3.23,0.003,4.848-0.003c0.528,0.003,1.06,0.006,1.59,0.003c1.615-0.003,3.23,0.003,4.846-0.003
			c0.524,0.003,1.056,0.006,1.583,0.003c1.612-0.003,3.224,0.006,4.839-0.003c0.531,0.003,1.062,0.01,1.596,0.003
			c1.609,0,3.218,0.006,4.83-0.003c0.533,0.003,1.074,0.01,1.614,0.003c1.612,0,3.225,0.006,4.836-0.003
			c0.531,0.003,1.062,0.01,1.596,0.003c5.949-0.007,11.898,0.016,17.851-0.01c0.02-5.949,0-11.901,0.007-17.85
			c0.006-0.534,0.003-1.068,0-1.596c0.003-1.612,0-3.224,0-4.833c0.006-0.538,0.003-1.075,0-1.606c0.003-1.612,0-3.224,0-4.835
			c0.006-0.538,0.003-1.078,0-1.615c0.003-1.605,0-3.214,0-4.82c0.006-0.541,0-1.084,0-1.621c0.003-1.612,0-3.221,0-4.83
			c0.006-0.534,0-1.068,0-1.599c0.003-1.615,0-3.23,0-4.849c0.006-0.527,0.003-1.055,0-1.583c0.003-1.615,0-3.23,0-4.845
			c0.006-0.528,0-1.056,0-1.58c0.003-1.611,0-3.224,0-4.835c0.006-0.538,0.003-1.071,0-1.605c0.003-1.618,0-3.237,0-4.852
			c0.006-0.528,0.003-1.056,0-1.58c0.003-1.615,0-3.233,0-4.852c0.006-0.534,0.003-1.068,0-1.599
			c-0.043-1.374,0.411-3.394-1.291-3.954c-0.515-0.145-1.052-0.078-1.576-0.087c-1.622,0.01-3.246-0.013-4.868,0.013h-20.317h-82.62
			h-6.447h-2.275V54.546z"/>
		<g display="inline">
			<path fill-rule="evenodd" clip-rule="evenodd" fill="#E3000F" d="M-133.843-14.688h1.217c2.165,0.293,4.221,1.474,5.405,3.333
				c1.573,2.333,1.596,5.579,0.07,7.944c-1.032,1.683-2.776,2.828-4.668,3.311c-1.053,0.219-2.098-0.209-3.153-0.064
				c-2.483-0.492-4.591-2.423-5.38-4.816c-0.859-2.461-0.254-5.351,1.506-7.268C-137.578-13.68-135.74-14.542-133.843-14.688z"/>
		</g>
		<g display="inline">
			<path fill-rule="evenodd" clip-rule="evenodd" fill="#E3000F" d="M-228.44-3.092c1.203-2.182,3.578-3.674,6.071-3.758
				c2.48-0.142,4.974,1.087,6.377,3.134c1.541,2.143,1.753,5.138,0.563,7.493c-0.968,1.979-2.87,3.449-5.02,3.922
				c-1.042,0.148-2.101,0.2-3.14,0.006c-2.301-0.521-4.328-2.171-5.219-4.366C-229.673,1.291-229.551-1.158-228.44-3.092z"/>
		</g>
		<g display="inline">
			<path fill-rule="evenodd" clip-rule="evenodd" fill="#E3000F" d="M-113.649,0.334c2.725-1.946,6.766-1.683,9.186,0.647
				c2.056,1.84,2.876,4.9,2.056,7.529c-0.73,2.522-2.918,4.511-5.47,5.074c-1.046,0.142-2.104,0.161-3.146,0.003
				c-2.229-0.501-4.199-2.062-5.129-4.16c-1.116-2.377-0.785-5.331,0.785-7.425C-114.873,1.371-114.294,0.814-113.649,0.334z"/>
		</g>
		<g display="inline">
			<path fill-rule="evenodd" clip-rule="evenodd" fill="#E3000F" d="M-134.972-0.164c1.056-0.145,2.101,0.283,3.153,0.064
				c0.016,5.312,0.025,10.627-0.007,15.942c-6.357,6.277-12.642,12.634-18.976,18.938c-0.043,4.671-0.007,9.347-0.02,14.021
				c0.003,1.92-0.01,3.841,0.01,5.766c-0.01,6.335,0.003,12.67-0.007,19.008c-0.007,0.528,0,1.055,0.013,1.586
				c-0.025,1.615-0.01,3.23-0.013,4.849c-0.007,0.528,0.003,1.056,0.013,1.583c-0.022,1.171-0.02,2.339-0.006,3.51
				c-1.049-0.19-2.124-0.184-3.173,0c0.029-2.095,0.029-4.186,0.022-6.28c0.007-0.531-0.003-1.062-0.01-1.593
				c0.022-1.605,0.007-3.214,0.01-4.82c0.007-0.534-0.003-1.065-0.01-1.596c0.025-1.615,0.007-3.227,0.01-4.842
				c0.007-0.534-0.003-1.071-0.01-1.605c0.022-1.612,0.01-3.224,0.01-4.833c0.007-0.54-0.003-1.084-0.01-1.622
				c0.02-1.123,0.014-2.242,0.01-3.362c0.013-1.915,0-3.826,0-5.74c0.01-5.106-0.016-10.215,0.016-15.321
				c6.319-6.332,12.648-12.657,18.98-18.979C-134.937,9.62-134.927,4.727-134.972-0.164z"/>
		</g>
		<g display="inline">
			<path fill-rule="evenodd" clip-rule="evenodd" fill="#E3000F" d="M-175.707,4c1.316-2.194,3.857-3.571,6.416-3.498
				c2.461,0.022,4.842,1.396,6.115,3.498c1.312,2.091,1.455,4.858,0.354,7.072c-0.958,2.011-2.883,3.5-5.051,3.99
				c-1.042,0.071-2.094,0.196-3.131,0.009c-1.624-0.399-3.133-1.293-4.176-2.613C-177.109,10.119-177.332,6.563-175.707,4z"/>
		</g>
		<g display="inline">
			<path fill-rule="evenodd" clip-rule="evenodd" fill="#E3000F" d="M-223.588,7.706c1.039,0.193,2.098,0.142,3.14-0.006
				c0.036,1.3-0.1,2.635,0.068,3.919c5.904,5.904,11.821,11.792,17.705,17.718c-0.013,6.489-0.006,12.979-0.006,19.468
				c-0.003,1.915-0.016,3.826,0.013,5.737c-0.029,6.46,0,12.917-0.016,19.375c-0.006,0.521,0.003,1.046,0.016,1.57
				c-0.036,1.625-0.013,3.25-0.016,4.875c-0.006,0.515,0.003,1.029,0.016,1.547c-0.02,0.547-0.022,1.097-0.016,1.647
				c-1.04-0.193-2.104-0.219-3.14-0.003c0-1.467,0.003-2.931-0.003-4.398c0.006-0.534-0.003-1.064-0.006-1.596
				c0.019-1.605,0.01-3.214,0.006-4.819c0.006-0.538-0.003-1.078-0.006-1.615c0.019-1.609,0.006-3.217,0.006-4.826
				c0.006-0.534-0.003-1.065-0.006-1.596c0.019-1.609,0.006-3.218,0.006-4.826c0.006-0.534-0.003-1.071-0.006-1.605
				c0.019-1.242,0.01-2.484,0.006-3.723c0.02-1.911,0-3.822,0.003-5.737c0-6.062,0.006-12.123-0.003-18.185
				c-5.891-5.946-11.837-11.84-17.744-17.77C-223.611,11.142-223.582,9.424-223.588,7.706z"/>
		</g>
		<g display="inline">
			<path fill-rule="evenodd" clip-rule="evenodd" fill="#E3000F" d="M-111.024,13.587c1.042,0.158,2.101,0.139,3.146-0.003
				c-0.032,3.726,0.045,7.455-0.042,11.174c-5.644,5.637-11.29,11.267-16.917,16.92c-0.122,2.368-0.032,4.755-0.025,7.13
				c-0.052,1.914-0.039,3.835,0,5.75c-0.042,6.335,0.003,12.664-0.023,18.999c-0.006,0.524-0.003,1.052,0,1.583
				c-0.009,1.608-0.006,3.217,0,4.823c-0.006,0.534-0.003,1.068,0,1.602c-0.009,1.612-0.003,3.227-0.003,4.842
				c-0.003,0.534,0,1.071,0.003,1.608c-0.009,1.612-0.006,3.224,0,4.836c-0.006,0.531-0.003,1.062,0,1.593
				c-0.009,1.611-0.006,3.224,0,4.839c-0.003,0.457-0.006,0.914-0.003,1.374c-1.042-0.193-2.107-0.174-3.149,0
				c0.016-0.943,0.01-1.886,0.01-2.829c0.003-0.537-0.003-1.071-0.007-1.605c0.013-1.606,0.007-3.211,0.007-4.813
				c0.003-0.541-0.003-1.078-0.007-1.612c0.013-1.605,0.004-3.214,0.004-4.82c0.006-0.537,0-1.078-0.004-1.615
				c0.013-1.609,0.007-3.214,0.007-4.823c0.003-0.537-0.003-1.075-0.007-1.612c0.013-1.609,0.007-3.221,0.007-4.83
				c0.003-0.537-0.003-1.071-0.007-1.605c0.013-1.605,0.007-3.211,0.007-4.816c0.003-0.537-0.003-1.075-0.007-1.608
				c0.013-1.612,0.004-3.224,0.007-4.836c0.003-0.538-0.003-1.075-0.007-1.609c0.013-1.026,0.007-2.049,0.004-3.072
				c0.013-1.915,0.009-3.826,0-5.74c0.013-2.795-0.014-5.595,0.013-8.391c5.61-5.656,11.267-11.274,16.9-16.914
				C-110.893,20.244-111.082,16.885-111.024,13.587z"/>
		</g>
		<g display="inline">
			<path fill-rule="evenodd" clip-rule="evenodd" fill="#E3000F" d="M-171.004,15.07c1.037,0.187,2.089,0.062,3.131-0.009
				c0.007,5.891-0.01,11.782,0.01,17.673c-2.848,3.118-6.059,5.959-8.898,9.083c0.021,2.329,0.016,4.659,0.006,6.985
				c0.006,1.92,0.003,3.841,0.013,5.759c-0.007,6.438-0.003,12.873,0,19.311c-0.007,0.534,0.003,1.071,0.007,1.609
				c-0.023,1.609-0.014,3.217-0.007,4.829c-0.007,0.534,0,1.071,0.007,1.612c-0.023,1.608-0.014,3.217-0.007,4.829
				c-0.007,0.531,0.003,1.062,0.007,1.593c-0.025,1.612-0.014,3.224-0.007,4.835c-0.007,0.531,0,1.065,0.007,1.599
				c-0.025,1.609-0.014,3.221-0.007,4.833c-0.003,0.261-0.007,0.779-0.007,1.036c-1.035-0.187-2.094-0.177-3.127,0.004
				c-0.016-0.827-0.01-1.654-0.02-2.478c0.004-0.541,0-1.078,0-1.612c0.016-1.606,0.01-3.211,0.004-4.817
				c0.003-0.537-0.004-1.075-0.007-1.608c0.019-1.612,0.013-3.224,0.007-4.836c0.003-0.531-0.004-1.062-0.007-1.593
				c0.022-1.615,0.013-3.23,0.007-4.842c0.003-0.531-0.004-1.062-0.007-1.59c0.022-1.615,0.013-3.23,0.007-4.845
				c0.003-0.528-0.004-1.059-0.007-1.583c0.019-1.615,0.013-3.23,0.007-4.842c0.003-0.534-0.004-1.068-0.007-1.602
				c0.022-1.615,0.013-3.227,0.007-4.839c0.003-0.538-0.004-1.072-0.007-1.603c0.019-1.139,0.013-2.274,0.007-3.41
				c0.028-1.915,0.003-3.826,0.003-5.737c-0.01-2.806-0.007-5.608,0.013-8.41c2.943-2.96,5.9-5.911,8.857-8.861
				C-170.984,26.055-171.023,20.562-171.004,15.07z"/>
		</g>
		<path display="inline" fill-rule="evenodd" clip-rule="evenodd" fill="#0068B4" d="M-239.479,56.427
			c-0.102-3.427,2.479-6.6,5.754-7.404l0.002-0.218c8.946,0.004,17.891,0.007,26.835,0.008l1.062-0.002v0.002
			c9.69,0.001,19.38,0.001,29.069,0.001v-0.013c2.256,0.007,4.512,0.011,6.768,0.013l6.412,0c3.205-0.001,6.41-0.004,9.615-0.003
			v0.002h3.141v-0.012c1.78,0.006,3.561,0.009,5.341,0.012h0.356h8.545h0.356h0.356c2.61-0.002,5.223-0.003,7.833-0.002v0.002h3.17
			v-0.006l2.594,0.006l7.82,0.001h0.373c5.292-0.004,10.584-0.011,15.875,0.016c3.887,0.154,7.236,3.707,7.123,7.603
			c0.007,28.426,0.007,56.852,0,85.281c-20.334,0.102-40.675-0.014-61.01,0.059v4.493h-27.376v-4.47
			c-20.001-0.132-40.012,0.039-60.016-0.079C-239.489,113.288-239.486,84.859-239.479,56.427L-239.479,56.427z M-128.032,54.542
			v0.009c-0.746-0.01-1.489-0.01-2.232,0.006c-0.239-0.005-0.478-0.01-0.716-0.013l-0.944,0c-6.292,0.022-12.589-0.02-18.886,0.022
			l-0.001-0.019l-3.149,0v0.002l-0.158-0.002l-0.033,0l-1.396,0.001c-0.148,0.002-0.297,0.004-0.445,0.008l-0.399-0.008l-3.525,0
			c-1.718,0.002-3.435,0.001-5.151,0h-0.135h-0.164l-8.381,0.001c-0.998,0.002-1.995,0.005-2.993,0.009v-0.009
			c-10.115,0-20.23,0-30.345-0.001l-0.394,0.007l-0.36-0.007l-5.343-0.001c-0.248,0.002-0.496,0.005-0.744,0.009l-0.445-0.009
			l-0.025,0h-2.39c-5.063,0.01-10.126-0.005-15.189,0.007c-0.962,0.016-1.808,0.91-1.773,1.869
			c-0.003,5.505,0.003,11.01-0.003,16.512c-0.006,0.531,0,1.062,0.007,1.596c-0.013,1.602-0.003,3.205-0.007,4.81
			c-0.006,0.534,0,1.065,0.007,1.603c-0.013,1.615,0,3.23-0.007,4.848c-0.006,0.525,0,1.05,0.007,1.574
			c-0.013,1.619-0.003,3.237-0.007,4.855c-0.006,0.534,0,1.072,0.007,1.609c-0.013,1.608-0.003,3.214-0.007,4.823
			c-0.006,0.537,0,1.074,0.007,1.612c-0.013,1.612-0.003,3.227-0.007,4.839c-0.006,0.524,0,1.049,0.007,1.573
			c-0.013,1.615-0.003,3.233-0.007,4.852c-0.006,0.531,0,1.062,0.007,1.596c-0.013,1.605-0.003,3.211-0.007,4.82
			c-0.006,0.54,0,1.078,0.007,1.621c-0.013,1.612-0.003,3.224-0.007,4.836c-0.006,0.531,0,1.059,0.007,1.589
			c-0.013,1.615-0.003,3.233-0.007,4.849c-0.006,0.524,0,1.052,0.007,1.58c-0.007,1.185-0.013,2.372,0.003,3.555
			c0.554,0.01,1.11,0.007,1.667,0c0.524,0.003,1.048,0.01,1.573,0.003c1.619,0,3.234,0.006,4.852-0.003
			c0.531,0.003,1.059,0.01,1.59,0.003c1.615,0,3.227,0.006,4.842,0c0.534,0,1.068,0.006,1.603,0c1.609,0,3.217,0.006,4.826-0.003
			c0.531,0.003,1.058,0.01,1.589,0.003c1.618,0,3.24,0.006,4.858-0.003c0.534,0.003,1.071,0.01,1.606,0.003
			c1.605,0,3.21,0.006,4.813,0c0.537,0,1.071,0.006,1.609,0c1.608,0,3.22,0.006,4.829-0.003c0.534,0.003,1.065,0.01,1.599,0.003
			c1.615,0,3.23,0.006,4.846,0c0.534,0,1.068,0.006,1.602,0c1.615,0,3.23,0.006,4.845-0.003c0.524,0.007,1.053,0.01,1.576,0.003
			c1.615,0,3.228,0.006,4.843-0.003c0.534,0.003,1.067,0.01,1.603,0.003c1.611,0,3.224,0.006,4.838-0.003
			c0.531,0.003,1.062,0.01,1.596,0.003c1.605,0,3.215,0.006,4.82,0c0.537,0.003,1.074,0.009,1.615,0.003
			c1.611-0.003,3.224,0.003,4.836-0.003c0.531,0.003,1.062,0.006,1.592,0.003c1.615-0.003,3.23,0.003,4.846-0.003
			c0.527,0.003,1.059,0.006,1.59,0.003c1.615-0.003,3.23,0.003,4.849-0.003c0.527,0.003,1.059,0.006,1.589,0.003
			c1.615-0.003,3.23,0.003,4.846-0.003c0.524,0.003,1.056,0.006,1.583,0.003c1.612-0.003,3.224,0.006,4.839-0.003
			c0.531,0.003,1.062,0.009,1.596,0.003c1.609,0,3.218,0.006,4.829-0.003c0.534,0.003,1.075,0.009,1.615,0.003
			c1.612,0,3.224,0.006,4.836-0.003c0.531,0.003,1.062,0.009,1.596,0.003c5.949-0.007,11.898,0.016,17.851-0.01
			c0.02-5.949,0-11.901,0.007-17.85c0.006-0.534,0.003-1.068,0-1.596c0.003-1.612,0-3.224,0-4.833c0.006-0.537,0.003-1.074,0-1.605
			c0.003-1.612,0-3.224,0-4.836c0.006-0.537,0.003-1.078,0-1.615c0.003-1.605,0-3.214,0-4.819c0.006-0.541,0-1.085,0-1.622
			c0.003-1.612,0-3.22,0-4.829c0.006-0.534,0-1.068,0-1.599c0.003-1.615,0-3.23,0-4.849c0.006-0.527,0.003-1.055,0-1.583
			c0.003-1.615,0-3.23,0-4.845c0.006-0.528,0-1.056,0-1.58c0.003-1.611,0-3.224,0-4.835c0.006-0.538,0.003-1.071,0-1.605
			c0.003-1.618,0-3.237,0-4.852c0.006-0.528,0.003-1.056,0-1.58c0.003-1.615,0-3.233,0-4.852c0.006-0.535,0.003-1.068,0-1.6
			c-0.042-1.374,0.411-3.395-1.29-3.954c-0.516-0.145-1.053-0.077-1.577-0.087c-1.622,0.01-3.246-0.013-4.868,0.013
			c-0.524-0.013-1.046-0.019-1.566-0.013c-4.29,0.014-8.58,0.004-12.869,0.004c-0.991,0.002-1.983,0.005-2.977,0.009l-1.22-0.005
			l-1.686,0.004l-0.001-0.01C-125.919,54.544-126.976,54.542-128.032,54.542z"/>
		<g display="inline">
			<path fill-rule="evenodd" clip-rule="evenodd" fill="#E3000F" d="M-205.825,83.553c1.036-0.215,2.101-0.189,3.14,0.003
				c0.865,0.231,1.705,0.566,2.468,1.042c0.328,0.238,0.644,0.489,0.956,0.75c0.814,0.775,1.458,1.718,1.882,2.76
				c0.132,0.405,0.254,0.814,0.367,1.229c0.325,1.856-0.02,3.819-1.042,5.411c-0.637,0.917-1.441,1.706-2.375,2.317
				c-1.525,0.914-3.362,1.245-5.116,0.962c-0.424-0.103-0.85-0.222-1.268-0.344c-1.026-0.415-1.979-1.023-2.751-1.818
				c-0.287-0.325-0.56-0.66-0.82-1c-0.656-1.042-1.091-2.223-1.207-3.456c-0.016-0.528-0.013-1.052,0.01-1.577
				C-211.179,86.806-208.805,84.212-205.825,83.553z"/>
			<path fill-rule="evenodd" clip-rule="evenodd" fill="#E3000F" d="M-159.704,91.5c0.261-3.076,2.722-5.753,5.721-6.396
				c1.049-0.184,2.124-0.19,3.173,0c0.438,0.132,0.875,0.273,1.312,0.421c0.331,0.167,0.666,0.341,0.994,0.521
				c0.943,0.618,1.754,1.425,2.371,2.368c0.18,0.325,0.351,0.653,0.518,0.984c0.474,1.197,0.692,2.497,0.531,3.78
				c-0.113,0.965-0.441,1.889-0.865,2.761c-0.689,1.142-1.654,2.104-2.793,2.799c-0.766,0.373-1.566,0.672-2.403,0.83
				c-1.394,0.232-2.828,0.045-4.138-0.47c-0.344-0.177-0.686-0.354-1.023-0.541C-158.648,97.082-160.055,94.267-159.704,91.5z"/>
			<path fill-rule="evenodd" clip-rule="evenodd" fill="#E3000F" d="M-179.877,100.65c1.033-0.181,2.092-0.19,3.127-0.004
				c0.158,0.049,0.473,0.139,0.635,0.187c1.785,0.589,3.384,1.824,4.256,3.513c1.329,2.362,1.165,5.451-0.389,7.67
				c-1.258,1.869-3.404,3.044-5.641,3.214c-0.521-0.01-1.039-0.036-1.554-0.084c-1.106-0.193-2.169-0.611-3.093-1.248
				c-0.379-0.287-0.739-0.592-1.087-0.914c-0.775-0.84-1.367-1.834-1.734-2.916c-0.106-0.428-0.207-0.855-0.283-1.287
				C-186.151,105.106-183.51,101.396-179.877,100.65z"/>
			<path fill-rule="evenodd" clip-rule="evenodd" fill="#E3000F" d="M-128.038,100.657c1.042-0.174,2.107-0.193,3.149,0
				c0.129,0.035,0.384,0.112,0.509,0.147c1,0.287,1.914,0.811,2.719,1.464c0.386,0.36,0.746,0.75,1.084,1.158
				c0.666,0.907,1.12,1.95,1.361,3.05c0.064,0.486,0.112,0.972,0.147,1.464c-0.02,3.9-3.445,7.333-7.354,7.3
				c-0.486-0.032-0.962-0.077-1.441-0.141c-1.185-0.254-2.301-0.779-3.253-1.528c-0.254-0.235-0.505-0.47-0.756-0.708
				c-0.792-0.897-1.384-1.959-1.712-3.111c-0.084-0.428-0.164-0.859-0.229-1.287C-134.139,104.891-131.549,101.394-128.038,100.657z
				"/>
		</g>
		<path display="inline" fill-rule="evenodd" clip-rule="evenodd" fill="#0085CD" d="M-248.102,142.36
			c0.274-0.264,0.515-0.666,0.949-0.641c2.558-0.028,5.116-0.013,7.674-0.003c20.004,0.118,40.015-0.054,60.016,0.079v4.47h27.376
			v-4.493c20.335-0.073,40.676,0.042,61.01-0.059c2.249-0.007,4.502-0.022,6.754,0.006c0.428-0.028,0.669,0.374,0.952,0.625v0.698
			c-0.595,3.606-3.665,6.502-7.268,7.001h-150.118c-3.629-0.444-6.712-3.349-7.346-6.953V142.36z"/>
	</g>
	<g>
		<g>
			<path fill-rule="evenodd" clip-rule="evenodd" fill="#0068B4" d="M73.493,59.907c5.598-1.484,11.845,2.301,13.151,7.929
				c1.527,5.349-1.786,11.439-7.071,13.125c-4.904,1.805-10.827-0.566-13.205-5.196c-2.318-4.144-1.461-9.721,1.959-13
				C69.741,61.357,71.557,60.376,73.493,59.907L73.493,59.907z M71.795,64.229L71.795,64.229c-1.568,0.733-2.697,2.469-2.452,4.224
				c0.12,1.076,0.958,2.023,2.02,2.265c2.801,0.653,5.745-2.509,4.649-5.239C75.362,63.863,73.231,63.475,71.795,64.229z"/>
		</g>
		<g>
			<path fill-rule="evenodd" clip-rule="evenodd" fill="#E3000F" d="M75.506,26.422c1.518-0.365,3.129,0.915,3.122,2.472
				c0.03,3.142,0.014,6.281,0.01,9.423c0.102,1.434-1.165,2.75-2.596,2.733c-1.44,0.034-2.713-1.286-2.626-2.727
				c-0.004-3.146-0.023-6.291,0.01-9.437C73.433,27.712,74.357,26.64,75.506,26.422z"/>
			<path fill-rule="evenodd" clip-rule="evenodd" fill="#E3000F" d="M51.695,32.791c1.155-0.329,2.462,0.248,3.015,1.313
				c1.552,2.703,3.129,5.393,4.667,8.103c0.737,1.2,0.254,2.911-0.981,3.571c-1.21,0.73-2.921,0.214-3.567-1.028
				c-1.454-2.465-2.857-4.964-4.309-7.433C49.25,35.879,49.702,33.273,51.695,32.791z"/>
			<path fill-rule="evenodd" clip-rule="evenodd" fill="#E3000F" d="M98.938,32.8c2.057-0.707,4.174,1.786,3.045,3.682
				c-1.562,2.773-3.173,5.524-4.764,8.28c-0.646,1.256-2.372,1.729-3.574,0.999c-1.232-0.649-1.698-2.358-0.972-3.547
				c1.487-2.633,3.032-5.229,4.519-7.862C97.562,33.648,98.134,32.995,98.938,32.8z"/>
			<path fill-rule="evenodd" clip-rule="evenodd" fill="#E3000F" d="M34.544,50.065c0.748-0.194,1.508,0.07,2.145,0.458
				c2.546,1.474,5.095,2.945,7.647,4.416c0.717,0.382,1.326,1.015,1.491,1.835c0.388,1.46-0.784,3.069-2.288,3.172
				c-0.721,0.101-1.391-0.228-1.993-0.576c-2.473-1.437-4.948-2.871-7.427-4.291c-0.72-0.378-1.363-0.978-1.551-1.795
				C32.163,51.901,33.128,50.323,34.544,50.065z"/>
			<path fill-rule="evenodd" clip-rule="evenodd" fill="#E3000F" d="M116.016,50.193c1.424-0.63,3.253,0.362,3.507,1.896
				c0.262,1.136-0.358,2.342-1.387,2.858c-2.689,1.544-5.359,3.128-8.06,4.653c-1.249,0.77-3.031,0.197-3.647-1.123
				c-0.604-1.196-0.107-2.787,1.082-3.413C110.345,53.438,113.138,51.734,116.016,50.193z"/>
			<path fill-rule="evenodd" clip-rule="evenodd" fill="#E3000F" d="M33.991,75.43c6.141-9.138,15.775-15.634,26.27-18.732
				c-3.102,3.497-4.998,8.049-5.222,12.723c-0.306,4.894,1.226,9.862,4.187,13.764c3.29,4.395,8.358,7.447,13.809,8.201
				c4.324,0.62,8.854-0.121,12.716-2.184c5.832-3.019,10.103-8.908,11.051-15.419c0.981-6.06-0.911-12.478-4.978-17.067
				c10.481,3.085,20.096,9.59,26.229,18.708c-5.071,7.558-12.555,13.349-20.923,16.836c-9.841,4.137-20.902,5.166-31.381,3.232
				C53.149,93.181,41.194,86.163,33.991,75.43z"/>
		</g>
		<path fill-rule="evenodd" clip-rule="evenodd" fill="#0068B4" d="M124.973,150.643c0.816,1.365,0.372,3.133-0.993,3.949
			c-1.364,0.816-3.133,0.372-3.949-0.993c-1.787-2.972-3.463-6.054-4.86-9.263c-1.425-3.272-2.56-6.674-3.23-10.223l-0.015-0.084
			c-0.729-3.653-0.87-7.509-0.275-11.234c0.562-3.52,1.779-6.932,3.778-9.965c0.048-0.073,0.099-0.143,0.152-0.21l-0.006-0.004
			c3.125-3.938,6.224-7.95,8.983-12.121c2.714-4.101,5.119-8.388,6.931-12.972c1.644-4.157,2.805-8.499,3.449-12.908
			c0.643-4.391,0.78-8.834,0.384-13.215l-0.001-0.012l-0.011,0c-0.546-6.234-2.111-12.339-4.536-18.069
			c-2.476-5.849-5.856-11.336-9.973-16.198l-0.01-0.013l-0.001,0.001c-4.102-4.885-8.988-9.122-14.405-12.5
			c-5.331-3.325-11.18-5.816-17.302-7.276c-0.074-0.018-0.146-0.038-0.217-0.06c-4.991-1.186-10.137-1.659-15.27-1.48
			C68.251,5.98,62.901,6.883,57.737,8.432l-0.033,0.01v0.001c-5.238,1.497-10.344,3.613-15.021,6.393
			c-4.289,2.549-8.224,5.662-11.571,9.371c-3.11,3.449-5.686,7.336-7.679,11.488c-2.037,4.243-3.484,8.791-4.294,13.458l-0.009,0.05
			c-0.045,0.302-0.127,0.821-0.208,1.333l-0.002,0.011l0.002,0c-0.302,1.904-0.607,3.839-0.203,5.469l0.011,0.045h0.001
			c0.234,1.025,0.595,2.03,0.955,3.034c0.244,0.681,0.49,1.365,0.619,1.763c0.021,0.062,0.038,0.124,0.054,0.185
			c0.507,1.79,0.498,3.567,0.206,5.289c-0.269,1.576-0.782,3.103-1.334,4.539l-0.017,0.042l0.005,0.002
			c-1.287,3.199-2.94,6.213-4.787,9.108c-1.837,2.877-3.782,5.53-5.735,8.107l0.002,0.001c-0.431,0.601-0.95,1.2-1.47,1.799
			c-0.365,0.422-0.73,0.843-1.04,1.259c1.718,1.094,3.925,1.666,6.104,2.23c0.463,0.12,0.921,0.239,1.595,0.424
			c1.28,0.349,2.122,1.51,2.121,2.775h0.012v7.309c0,0.948-0.457,1.791-1.163,2.317c-0.237,0.214-0.364,0.32-0.484,0.421
			l-0.011,0.009c0.282,0.446,0.703,0.939,1.118,1.426c0.443,0.52,0.884,1.036,1.31,1.65c0.569,0.825,0.649,1.842,0.304,2.708
			l0.001,0c-0.18,0.449-0.41,0.931-0.641,1.412c-0.224,0.467-0.447,0.936-0.594,1.364l0.079-0.071
			c0.016-0.033,0.03-0.049,0.041-0.038c0.252,0.276,0.503,0.551,0.737,0.872v0c1.637,2.149,2.558,4.651,2.911,7.238
			c0.38,2.786,0.099,5.668-0.65,8.291c-0.012,0.04-0.024,0.08-0.037,0.119c-0.069,0.294-0.064,0.608,0.017,0.899
			c0.066,0.237,0.185,0.447,0.354,0.585c0.061,0.049,0.117,0.1,0.173,0.153c0.473,0.355,1.049,0.608,1.672,0.797
			c0.763,0.231,1.685,0.374,2.609,0.488c2.235,0.193,4.485,0.178,6.722-0.004c2.261-0.184,4.508-0.534,6.717-1.007l-0.001-0.003
			c2.201-0.525,4.534-0.824,6.886-0.743c2.133,0.073,4.252,0.46,6.267,1.271l0.073,0.031c2.6,1.025,4.839,2.668,6.669,4.678
			c1.974,2.169,3.479,4.771,4.446,7.479c0.535,1.502-0.248,3.154-1.749,3.69c-1.502,0.536-3.154-0.248-3.69-1.749
			c-0.722-2.027-1.831-3.955-3.272-5.538c-1.267-1.392-2.783-2.517-4.504-3.198c-0.039-0.014-0.078-0.028-0.116-0.043
			c-1.369-0.551-2.826-0.814-4.304-0.865c-1.763-0.061-3.594,0.183-5.374,0.608l-0.001-0.004l-0.066,0.015
			c-2.479,0.534-4.999,0.929-7.527,1.134c-2.564,0.208-5.143,0.225-7.705,0.001v-0.001l-0.102-0.01
			c-1.151-0.141-2.369-0.335-3.646-0.722c-1.275-0.386-2.507-0.955-3.614-1.828c-0.074-0.049-0.146-0.103-0.217-0.16
			c-1.126-0.92-1.876-2.169-2.25-3.52c-0.356-1.29-0.364-2.687-0.021-3.97c0.012-0.054,0.025-0.108,0.041-0.162
			c0.549-1.918,0.759-3.988,0.492-5.943c-0.224-1.642-0.788-3.203-1.781-4.508l0.002-0.001c-0.028-0.036-0.056-0.074-0.081-0.111
			c-0.068-0.098-0.194-0.236-0.321-0.375c-0.989-1.082-2-2.187-1.671-4.365l0.006,0.001c0.008-0.053,0.018-0.106,0.028-0.159
			c0.213-1.014,0.578-1.86,0.965-2.681c-1.332-1.561-2.683-3.166-2.786-5.714c-0.065-0.675,0.105-1.376,0.535-1.969
			c0.44-0.607,0.931-1.071,1.429-1.502v-3.783c-2.557-0.667-5.129-1.408-7.521-3.042c-0.082-0.051-0.163-0.107-0.241-0.167
			c-0.534-0.412-1.141-0.962-1.621-1.669c-0.052-0.07-0.102-0.143-0.148-0.219c-0.742-1.221-1.021-2.642-0.254-4.214l0.005,0.002
			l0.006-0.014c0.672-1.352,1.539-2.352,2.405-3.352c0.383-0.441,0.766-0.883,1.131-1.393l0.003,0.002l0.043-0.058
			c1.956-2.582,3.874-5.186,5.529-7.781c1.658-2.598,3.141-5.299,4.292-8.16l0.005,0.002c0.42-1.097,0.808-2.248,1.001-3.39
			c0.161-0.948,0.181-1.882-0.057-2.745c-0.237-0.73-0.394-1.167-0.551-1.604c-0.434-1.208-0.867-2.418-1.159-3.688h0.001
			c-0.665-2.721-0.268-5.232,0.124-7.703h0.002c0.052-0.327,0.103-0.647,0.187-1.251c0.007-0.07,0.017-0.141,0.028-0.211
			c0.895-5.162,2.509-10.221,4.79-14.97c2.245-4.676,5.123-9.029,8.581-12.864c3.753-4.157,8.146-7.636,12.926-10.477
			c5.123-3.045,10.688-5.354,16.375-6.98v0.001C61.709,1.22,67.541,0.244,73.416,0.04c5.63-0.195,11.286,0.327,16.789,1.635
			c0.07,0.011,0.14,0.025,0.209,0.041c6.728,1.604,13.155,4.343,19.017,7.998c5.934,3.7,11.287,8.341,15.782,13.695l-0.001,0.001
			c4.471,5.284,8.154,11.27,10.865,17.675c2.67,6.31,4.391,13.003,4.987,19.807l-0.01,0.001c0.439,4.873,0.293,9.766-0.408,14.557
			c-0.711,4.862-1.984,9.636-3.787,14.194c-1.963,4.966-4.563,9.604-7.495,14.032c-2.871,4.34-6.043,8.45-9.234,12.474
			c-1.462,2.274-2.365,4.858-2.794,7.548c-0.484,3.033-0.366,6.191,0.233,9.197c0.013,0.052,0.024,0.104,0.034,0.158
			c0.585,3.092,1.586,6.085,2.847,8.982C121.739,144.995,123.301,147.863,124.973,150.643L124.973,150.643z M15.86,115.236
			c-0.034,0.102-0.064,0.202-0.09,0.299c-0.052,0.361,0.086-0.209,0.169-0.371L15.86,115.236z"/>
	</g>
	<g display="none">
		<g display="inline">
			<path fill-rule="evenodd" clip-rule="evenodd" fill="#E3000F" d="M-416.807,220.504c9.2-5.57,20.166-8.128,30.884-7.285
				c9.919,0.719,19.59,4.412,27.502,10.435c8.627,6.512,15.194,15.744,18.41,26.07c3.935,12.242,2.946,25.915-2.558,37.521
				c-2.742-2.729-5.52-5.422-8.262-8.15c1.854-5.409,2.752-11.167,2.291-16.88c-0.662-9.821-5.02-19.327-11.996-26.262
				c-6.865-6.951-16.272-11.332-26.02-12.063c-9.063-0.761-18.372,1.565-25.968,6.582c-8.348,5.402-14.647,13.915-17.3,23.503
				c-1.918,6.713-2.036,13.909-0.478,20.707c2.583,11.29,10.139,21.382,20.357,26.869c7.107,3.837,15.328,5.675,23.389,5.014
				c6.7-0.516,13.253-2.732,18.913-6.353c2.586,2.589,5.179,5.173,7.762,7.765c-5.996,4.229-12.893,7.158-20.102,8.532
				c0.016,13.295-0.006,26.593,0.009,39.891c0.061,2.007-0.022,4.101-0.951,5.933c-1.877,4.158-6.843,6.592-11.277,5.45
				c-4.279-0.978-7.606-5.043-7.62-9.449c-0.013-13.984-0.003-27.97-0.006-41.954c-8.122-1.588-15.926-5.017-22.425-10.164
				c-10.928-8.542-18.207-21.604-19.642-35.407c-0.91-8.412,0.251-17.049,3.417-24.897
				C-434.291,235.376-426.532,226.322-416.807,220.504z"/>
		</g>
		<g display="inline">
			<g>
				<path fill-rule="evenodd" clip-rule="evenodd" fill="#0068B4" d="M-393.848,248.553c3.932-1.816,8.72-1.584,12.468,0.583
					c3.979,2.232,6.566,6.648,6.687,11.194c0.137,2.274-0.493,4.492-1.313,6.585c13.931,13.833,27.944,27.582,41.84,41.449
					c2.157-2.135,4.276-4.313,6.455-6.433c0.519-0.63,1.721-0.172,1.559,0.681c0.009,6.267,0,12.537,0.003,18.805
					c0.083,0.576-0.232,1.263-0.906,1.187c-6.369,0.016-12.741,0.028-19.107-0.007c-0.738,0.026-1.212-1.04-0.652-1.549
					c2.056-2.145,4.2-4.202,6.283-6.321c-14.058-13.81-27.973-27.77-42.005-41.604c-3.162,1.546-6.881,1.578-10.206,0.544
					c-4.852,6.356-9.735,12.688-14.592,19.04c-2.526-1.642-4.845-3.607-6.869-5.841c4.829-6.283,9.665-12.56,14.497-18.84
					c-2.147-3.521-2.704-8.029-1.164-11.889C-399.663,252.804-397.089,249.994-393.848,248.553L-393.848,248.553z M-389.909,254.772
					L-389.909,254.772c-1.184,0.331-2.293,0.967-3.111,1.893c-1.992,2.214-2.186,5.876-0.268,8.195
					c1.855,2.38,5.469,3.124,8.083,1.591c2.653-1.375,4.021-4.771,2.987-7.591C-383.168,255.739-386.795,253.828-389.909,254.772z"
					/>
			</g>
			<g>
				<path fill-rule="evenodd" clip-rule="evenodd" fill="#0068B4" d="M-431.893,309.767c2.122,2.097,4.413,4.021,6.865,5.724
					c-2.494,3.226-5.007,6.438-7.498,9.668c1.756,2.978,2.338,6.627,1.492,9.986c-0.964,4.008-3.812,7.549-7.604,9.209
					c-2.86,1.113-6.079,1.568-9.063,0.675c-4.222-1.151-7.864-4.454-9.162-8.666c-7.74-0.006-15.48,0.013-23.22-0.009
					c-2.332,0.003-4.409-2.113-4.368-4.445c-0.038-2.341,2.045-4.473,4.396-4.45c7.699-0.025,15.394,0,23.093-0.01
					c1.327-3.562,4.133-6.562,7.683-7.972c3.159-1.33,6.798-1.358,10.005-0.175C-436.807,316.13-434.358,312.942-431.893,309.767
					L-431.893,309.767z M-445.635,325.893L-445.635,325.893c-2.873,0.771-5.202,3.607-4.877,6.649
					c0.248,3.305,3.385,6.082,6.693,5.904c3.21-0.131,6.06-2.959,6.047-6.203C-437.498,328.231-441.735,324.681-445.635,325.893z"/>
			</g>
		</g>
	</g>
	<g display="none">
		<path display="inline" fill-rule="evenodd" clip-rule="evenodd" fill="#0068B4" d="M-445.062,0h79.502
			c4.42,0.696,8.153,4.438,8.704,8.897v108.144c-0.506,3.884-3.403,7.311-7.133,8.492c-1.601,0.53-3.315,0.405-4.974,0.412
			c-6.46-0.012-12.921,0.006-19.381-0.009c0.012,8.074,0.006,16.151,0.003,24.225c7.266-0.015,14.531,0.003,21.794-0.009
			c0.003,1.616,0.003,3.233,0.003,4.85h-77.5c-0.006-1.613,0.003-3.23,0-4.844c7.263-0.012,14.525,0.009,21.791-0.009
			c0.006-8.068,0.012-16.133-0.006-24.201c-7.163-0.018-14.328,0.003-21.491-0.009c-4.94,0.121-9.382-4.057-9.981-8.888V8.722
			C-453.06,4.347-449.424,0.714-445.062,0L-445.062,0z M-445.707,5.059L-445.707,5.059c-1.795,0.457-3.067,2.18-3.148,4.002
			c-0.094,2.022,0.018,4.048-0.033,6.07c0.024,33.819-0.027,67.641,0.024,101.459c-0.115,2.458,2.07,4.562,4.501,4.493
			c25.938,0.021,51.877-0.003,77.815,0.012c1.562,0.027,3.239-0.593,4.09-1.971c0.796-1.205,0.791-2.703,0.754-4.093
			c0-35.114,0-70.226,0-105.337c0.012-1.281-0.352-2.634-1.296-3.542c-0.905-0.951-2.259-1.317-3.536-1.305
			c-25.842,0-51.684,0.003-77.525-0.003C-444.614,4.858-445.174,4.904-445.707,5.059L-445.707,5.059z M-417.397,125.941
			L-417.397,125.941c-0.009,8.071,0.003,16.145-0.006,24.216c8.074-0.003,16.145-0.006,24.219,0c-0.003-8.074-0.006-16.145,0-24.219
			C-401.255,125.944-409.327,125.938-417.397,125.941z"/>
		<path display="inline" fill-rule="evenodd" clip-rule="evenodd" fill="#E3000F" d="M-444.04,60.55
			c1.613-0.012,3.227-0.021,4.841,0c-0.016,1.614,0.033,3.228,0,4.841c-1.614,0.034-3.228-0.015-4.841,0
			C-444.061,63.777-444.049,62.164-444.04,60.55L-444.04,60.55z M-429.245,82.351c-4.176,0-6.264-2.196-6.264-6.589V50.218
			c0-4.428,2.07-6.643,6.21-6.643h4.968c4.14,0,6.21,2.214,6.21,6.643v25.544c0,4.393-2.088,6.589-6.264,6.589H-429.245
			L-429.245,82.351z M-428.003,77.652h2.646c1.369,0,2.052-0.756,2.052-2.268V50.542c0-1.512-0.774-2.269-2.322-2.269h-2.43
			c-1.512,0-2.269,0.756-2.269,2.269v24.842C-430.325,76.896-429.551,77.652-428.003,77.652L-428.003,77.652z M-407.535,82.351
			c-4.176,0-6.265-2.196-6.265-6.589V50.218c0-4.428,2.07-6.643,6.21-6.643h4.968c4.141,0,6.21,2.214,6.21,6.643v25.544
			c0,4.393-2.088,6.589-6.264,6.589H-407.535L-407.535,82.351z M-406.293,77.652h2.646c1.368,0,2.052-0.756,2.052-2.268V50.542
			c0-1.512-0.774-2.269-2.322-2.269h-2.43c-1.512,0-2.268,0.756-2.268,2.269v24.842C-408.615,76.896-407.841,77.652-406.293,77.652
			L-406.293,77.652z M-380.263,82.351V64.745h-6.373v17.605h-5.184V43.575h5.184v16.471h6.373V43.575h5.185v38.775H-380.263
			L-380.263,82.351z M-444.067,87.164c25.845,0.052,51.687-0.006,77.532,0.027c-0.009,9.685,0.009,19.372-0.009,29.057
			c-25.83,0.021-51.659-0.006-77.489,0.012C-444.079,106.563-444.01,96.863-444.067,87.164L-444.067,87.164z M-444.04,9.69
			c25.838-0.03,51.68,0.018,77.519-0.024c-0.045,9.694,0.003,19.384-0.021,29.078c-25.842,0.036-51.684-0.021-77.522,0.027
			C-444.019,29.078-444.067,19.384-444.04,9.69L-444.04,9.69z M-371.383,60.55c1.613-0.012,3.227-0.021,4.841,0
			c-0.015,1.614,0.033,3.228,0,4.841c-1.614,0.034-3.228-0.015-4.841,0C-371.404,63.777-371.392,62.164-371.383,60.55z"/>
	</g>
	<rect x="-28.094" y="188.555" display="none" fill="none" width="212" height="212"/>
	<rect x="-268.757" y="182.603" display="none" fill="none" width="212" height="212"/>
	<rect x="-271.736" y="-35.425" display="none" fill="none" width="212" height="212"/>
	<rect x="-28.094" y="-29.5" display="none" fill="none" width="212" height="212"/>
	<rect x="-511.094" y="-29.434" display="none" fill="none" width="212" height="212"/>
	<rect x="-506.094" y="188.555" display="none" fill="none" width="212" height="212"/>
</g>
</svg>
